<?xml version="1.0" encoding="UTF-8" standalone="no"?>
<svg
   viewBox="0 0 512 512"
   version="1.1"
   id="svg4"
   sodipodi:docname="BlackQueen.svg"
   inkscape:version="1.2.2 (1:1.2.2+202212051552+b0a8486541)"
   xmlns:inkscape="http://www.inkscape.org/namespaces/inkscape"
   xmlns:sodipodi="http://sodipodi.sourceforge.net/DTD/sodipodi-0.dtd"
   xmlns="http://www.w3.org/2000/svg"
   xmlns:svg="http://www.w3.org/2000/svg">
  <defs
     id="defs8" />
  <sodipodi:namedview
     id="namedview6"
     pagecolor="#ffffff"
     bordercolor="#000000"
     borderopacity="0.25"
     inkscape:showpageshadow="2"
     inkscape:pageopacity="0.0"
     inkscape:pagecheckerboard="0"
     inkscape:deskcolor="#d1d1d1"
     showgrid="false"
     inkscape:zoom="1.7128906"
     inkscape:cx="255.7081"
     inkscape:cy="256.58381"
     inkscape:window-width="1920"
     inkscape:window-height="1048"
     inkscape:window-x="0"
     inkscape:window-y="0"
     inkscape:window-maximized="1"
     inkscape:current-layer="svg4" />
  <path
     d="M 256,118.78798 A 54.325725,53.360245 0 1 0 201.67427,65.427737 54.325725,53.360245 0 0 0 256,118.78798 Z M 426.73799,438.94945 H 85.262007 a 15.521636,15.245784 0 0 0 -15.521636,15.24578 v 30.49157 a 15.521636,15.245784 0 0 0 15.521636,15.24579 H 426.73799 a 15.521636,15.245784 0 0 0 15.52164,-15.24579 v -30.49157 a 15.521636,15.245784 0 0 0 -15.52164,-15.24578 z m 70.69135,-251.40298 -27.65761,-15.16956 c -7.21756,-4.7643 -16.40443,-2.34404 -21.62358,4.4594 a 46.167165,45.346679 0 0 1 -45.81793,17.37066 c -22.44816,-4.08778 -37.67877,-24.98403 -37.67877,-47.40486 a 12.99937,12.768344 0 0 0 -12.99937,-12.76834 h -37.61086 c -5.82062,0 -11.26289,3.81144 -12.47552,9.44285 a 46.564907,45.737353 0 0 1 -91.1314,0 c -1.21263,-5.64094 -6.6161,-9.44285 -12.47552,-9.44285 h -37.61086 a 12.99937,12.768344 0 0 0 -12.99937,12.76834 c 0,24.47901 -18.43194,46.452 -43.33447,48.10998 A 46.079856,45.260922 0 0 1 63.716036,176.66479 C 58.593896,169.909 49.42643,167.66025 42.286478,172.3388 L 14.570657,187.58458 A 15.521636,15.245784 0 0 0 9.2933009,207.08966 L 108.77729,408.45788 H 403.22271 L 502.7067,207.05154 a 15.521636,15.245784 0 0 0 -5.27736,-19.50507 z"
     id="path2"
     style="stroke:#ffffff;stroke-width:4.80722;stroke-dasharray:none;stroke-opacity:1" />
</svg>
