<?xml version="1.0" encoding="UTF-8" standalone="no"?>
<svg
   viewBox="0 0 320 512"
   version="1.1"
   id="svg4"
   sodipodi:docname="BlackBishop.svg"
   inkscape:version="1.2.2 (1:1.2.2+202212051552+b0a8486541)"
   xmlns:inkscape="http://www.inkscape.org/namespaces/inkscape"
   xmlns:sodipodi="http://sodipodi.sourceforge.net/DTD/sodipodi-0.dtd"
   xmlns="http://www.w3.org/2000/svg"
   xmlns:svg="http://www.w3.org/2000/svg">
  <defs
     id="defs8" />
  <sodipodi:namedview
     id="namedview6"
     pagecolor="#ffffff"
     bordercolor="#000000"
     borderopacity="0.25"
     inkscape:showpageshadow="2"
     inkscape:pageopacity="0.0"
     inkscape:pagecheckerboard="0"
     inkscape:deskcolor="#d1d1d1"
     showgrid="false"
     inkscape:zoom="1.7128906"
     inkscape:cx="159.96351"
     inkscape:cy="256.58381"
     inkscape:window-width="1920"
     inkscape:window-height="1048"
     inkscape:window-x="0"
     inkscape:window-y="0"
     inkscape:window-maximized="1"
     inkscape:current-layer="svg4" />
  <path
     d="M8 287.88c0 51.64 22.14 73.83 56 84.6V416h192v-43.52c33.86-10.77 56-33 56-84.6 0-30.61-10.73-67.1-26.69-102.56L185 285.65a8 8 0 0 1-11.31 0l-11.31-11.31a8 8 0 0 1 0-11.31L270.27 155.1c-20.8-37.91-46.47-72.1-70.87-92.59C213.4 59.09 224 47.05 224 32a32 32 0 0 0-32-32h-64a32 32 0 0 0-32 32c0 15 10.6 27.09 24.6 30.51C67.81 106.8 8 214.5 8 287.88zM304 448H16a16 16 0 0 0-16 16v32a16 16 0 0 0 16 16h288a16 16 0 0 0 16-16v-32a16 16 0 0 0-16-16z"
     id="path2"
     style="stroke:#ffffff;stroke-opacity:1;stroke-width:5;stroke-dasharray:none" />
</svg>
