<?xml version="1.0" encoding="UTF-8" standalone="no"?>
<svg
   viewBox="0 0 384 512"
   version="1.1"
   id="svg4"
   sodipodi:docname="WhiteRook.svg"
   inkscape:version="1.2.2 (1:1.2.2+202212051552+b0a8486541)"
   xmlns:inkscape="http://www.inkscape.org/namespaces/inkscape"
   xmlns:sodipodi="http://sodipodi.sourceforge.net/DTD/sodipodi-0.dtd"
   xmlns="http://www.w3.org/2000/svg"
   xmlns:svg="http://www.w3.org/2000/svg">
  <defs
     id="defs8" />
  <sodipodi:namedview
     id="namedview6"
     pagecolor="#ffffff"
     bordercolor="#000000"
     borderopacity="0.25"
     inkscape:showpageshadow="2"
     inkscape:pageopacity="0.0"
     inkscape:pagecheckerboard="0"
     inkscape:deskcolor="#d1d1d1"
     showgrid="false"
     inkscape:zoom="1.7128906"
     inkscape:cx="192.07298"
     inkscape:cy="256.58381"
     inkscape:window-width="1920"
     inkscape:window-height="1048"
     inkscape:window-x="0"
     inkscape:window-y="0"
     inkscape:window-maximized="1"
     inkscape:current-layer="svg4" />
  <path
     d="M 360,464 H 23.1 C 10.75,464 0,474.7 0,487.1 0,499.5 10.75,512 23.1,512 H 360 c 13.3,0 24,-10.7 24,-24 0,-13.3 -10.7,-24 -24,-24 z M 345.1,32 H 37.1 C 17,32 0,49 0,70 v 139.4 c 0,9.4 4,18.1 11,24.2 l 37,32.2 c 0,8.885 0.0504,17.64 0.0504,26.46 0,39.32 -1.001,116.76972 -11.93,176.60972 h 49 C 94.95,411.10972 96.11,333.3 96.11,285.5 96.11,270.7 96,255.1 96,238.2 L 48,196.5 V 80 h 64 v 48 h 48 V 80 h 64 v 48 h 48 V 80 h 64 v 116.5 l -48,41.7 c 0,16.77 -0.1124,32.25 -0.1124,47.1 0,47.79 1.164,121.16407 10.99,178.71407 h 49 C 336.9576,404.18407 335.9476,331.4 335.9476,292.1 335.9,283.3 336,274.6 336,265.8 l 37,-32.13 c 7,-6.17 11,-14.87 11,-24.27 V 70 C 384,49 367,32 345.1,32 Z M 192,224 c -17.6,0 -32,14.4 -32,32 v 64 h 64 v -64 c 0,-17.6 -14.4,-32 -32,-32 z"
     id="path2"
     sodipodi:nodetypes="sssssssssssccsccsccccccccccccccscccccsssssccss" />
</svg>
