<?xml version="1.0" encoding="UTF-8" standalone="no"?>
<svg
   viewBox="0 0 384 512"
   version="1.1"
   id="svg4"
   sodipodi:docname="WhiteKnight.svg"
   inkscape:version="1.2.2 (1:1.2.2+202212051552+b0a8486541)"
   xmlns:inkscape="http://www.inkscape.org/namespaces/inkscape"
   xmlns:sodipodi="http://sodipodi.sourceforge.net/DTD/sodipodi-0.dtd"
   xmlns="http://www.w3.org/2000/svg"
   xmlns:svg="http://www.w3.org/2000/svg">
  <defs
     id="defs8" />
  <sodipodi:namedview
     id="namedview6"
     pagecolor="#ffffff"
     bordercolor="#000000"
     borderopacity="0.25"
     inkscape:showpageshadow="2"
     inkscape:pageopacity="0.0"
     inkscape:pagecheckerboard="0"
     inkscape:deskcolor="#d1d1d1"
     showgrid="false"
     inkscape:zoom="1.7128906"
     inkscape:cx="192.07298"
     inkscape:cy="257.16762"
     inkscape:window-width="1920"
     inkscape:window-height="1048"
     inkscape:window-x="0"
     inkscape:window-y="0"
     inkscape:window-maximized="1"
     inkscape:current-layer="svg4" />
  <path
     d="m 44,320.6 14.5,6.5 c -17.01,20.24 -26.44,45.91 -26.44,72.35 0,0.25 0.06,66.91217 0.06,66.91217 h 48 L 80.12,400 c 0,-24.75 14,-47.5 36.13,-58.63 L 154.38,318 c 13.25,-6.625 21.75,-20.25 21.75,-35.13 v -58.75 l -15.37,9 c -5.16,2.68 -8.86,7.28 -10.26,12.78 L 143,271 c -2.25,7.625 -8,13.88 -15.38,16.75 L 117.1,292 c -3.1,1.3 -6.4,1.9 -9.7,1.9 -3.626,0 -7.263,-0.7514 -10.66,-2.254 L 63.5,276.9 C 54.12,272.6 48,263.2 48,252.9 V 140.5 c 0,-5.125 2.125,-10.12 5.75,-13.88 L 61.125,119.245 49.5,96 C 48.5,94.12 48,92 48,89.88 48,84.38 52.38,80 57.88,80 h 105 c 86.75,0 156.1,70.38 156.1,157.1 l 0,232.06594 h 48.06 L 366.9775,237.1 C 367.9,124 276,32 162.9,32 H 57.88 C 25.88,32 0,57.88 0,89.88 0,98.38 1.75,106.76 5.125,114.5 1.75,122.8 0,131.6 0,140.5 v 112.4 c 0,29.3 17.25,55.9 44,67.7 z M 80.12,164 c 0,11 8.875,20 20,20 11,0 20,-9 20,-20 0,-11 -9,-20 -20,-20 -11.12,0 -20,9 -20,20 z M 360,464 H 23.1 C 10.75,464 0,474.7 0,487.1 0,499.5 10.75,512 23.1,512 H 360 c 13.3,0 24,-10.7 24,-24 0,-13.3 -10.7,-24 -24,-24 z"
     id="path2"
     sodipodi:nodetypes="ccsccsccsccccccsccsscccsssscccssscsscssssssssssss"
     style="fill:#000000;fill-opacity:1;stroke:#ffffff;stroke-opacity:1;stroke-width:5;stroke-dasharray:none" />
  <path
     style="fill:#ffffff;fill-opacity:1;stroke:none;stroke-width:2.91904"
     d="m 80.565564,428.88377 c 0,-38.42974 0.132581,-40.30359 3.542112,-50.06284 5.57656,-15.96203 15.572056,-27.58285 31.712464,-36.86906 2.07955,-1.19645 13.0501,-7.82371 24.379,-14.72724 23.67257,-14.42544 26.92699,-17.08019 31.34243,-25.56723 4.73917,-9.10927 4.76858,-9.39148 4.76858,-45.75079 0,-17.60884 -0.11923,-32.01607 -0.26496,-32.01607 -0.54947,0 -17.61862,10.19946 -19.32987,11.55032 -3.84227,3.03311 -5.26828,6.19472 -10.1946,22.60247 -2.60298,8.66955 -5.41652,16.93633 -6.25231,18.37062 -2.10304,3.609 -6.45551,7.81596 -9.88344,9.55302 -1.58177,0.80154 -5.88521,2.69478 -9.56319,4.20718 -5.86509,2.41175 -7.35033,2.78538 -12.08088,3.03906 -4.09058,0.21935 -6.11645,0.0528 -8.38538,-0.68931 -3.212232,-1.05067 -32.300956,-13.85408 -37.918972,-16.69004 -4.734575,-2.39 -8.795663,-6.66235 -11.463374,-12.0597 l -2.225169,-4.502 -0.156416,-61.13468 -0.156415,-61.13467 1.262466,-3.37424 c 0.991894,-2.65108 2.394342,-4.54425 6.543706,-8.83341 L 61.522587,119.336 54.911392,106.00306 C 48.415385,92.902425 48.304969,92.612564 48.57414,89.366721 c 0.318809,-3.844423 1.596072,-5.874121 4.89922,-7.78535 l 2.280346,-1.319427 61.007984,0.181825 c 58.98535,0.175797 61.2596,0.222985 68.59749,1.423325 34.68892,5.67445 63.35258,20.107436 87.25361,43.934726 23.93706,23.8632 38.73618,53.35867 44.52852,88.74778 l 1.28999,7.88141 0.18001,120.7024 0.18,120.70239 H 199.67844 80.565564 Z M 108.6863,182.31213 c 4.1669,-1.90767 7.76306,-5.49273 9.74043,-9.71036 1.33213,-2.84134 1.5459,-4.0643 1.5459,-8.8435 0,-5.20983 -0.12143,-5.77016 -2.00237,-9.23936 -2.20317,-4.06355 -5.16241,-6.91541 -9.30242,-8.96488 -2.27364,-1.12554 -3.6405,-1.34096 -8.54469,-1.34661 -6.91615,-0.008 -9.995501,1.17768 -14.321953,5.51447 -4.325309,4.33565 -5.512832,7.41766 -5.520803,14.32828 -0.0064,5.54971 0.09229,6.02074 1.998068,9.53583 1.89799,3.50074 4.963128,6.59694 8.211846,8.29508 5.279533,2.75966 12.724412,2.93603 18.195992,0.43105 z"
     id="path3022" />
</svg>
