<?xml version="1.0" encoding="UTF-8" standalone="no"?>
<svg
   viewBox="0 0 320 512"
   version="1.1"
   id="svg4257"
   sodipodi:docname="WhiteBishop.svg"
   inkscape:version="1.2.2 (1:1.2.2+202212051552+b0a8486541)"
   xmlns:inkscape="http://www.inkscape.org/namespaces/inkscape"
   xmlns:sodipodi="http://sodipodi.sourceforge.net/DTD/sodipodi-0.dtd"
   xmlns="http://www.w3.org/2000/svg"
   xmlns:svg="http://www.w3.org/2000/svg">
  <defs
     id="defs4261" />
  <sodipodi:namedview
     id="namedview4259"
     pagecolor="#ffffff"
     bordercolor="#000000"
     borderopacity="0.25"
     inkscape:showpageshadow="2"
     inkscape:pageopacity="0.0"
     inkscape:pagecheckerboard="0"
     inkscape:deskcolor="#d1d1d1"
     showgrid="false"
     inkscape:zoom="1.7128906"
     inkscape:cx="159.96351"
     inkscape:cy="257.16762"
     inkscape:window-width="1920"
     inkscape:window-height="1048"
     inkscape:window-x="0"
     inkscape:window-y="0"
     inkscape:window-maximized="1"
     inkscape:current-layer="svg4257" />
  <path
     d="M 296,464 H 23.1 C 10.75,464 0,474.7 0,487.1 0,499.5 10.75,512 23.1,512 h 272 c 14.2,0 24.9,-10.7 24.9,-24 0,-13.3 -10.7,-24 -24,-24 z M 0,304 c 0,51.63 30.12,85.25 64,96 v 68.50827 h 48 V 364.87 L 78.5,354.24 C 63.75,349.5 48,333.9 48,304 48,219.9 141.2,97.5 160.6,97.5 c 19.63,0 60.01,67.18 70.28,85.8 l -66.13,66.13 c -3.125,3.125 -4.688,7.219 -4.688,11.31 0,4.091 1.538,8.16 4.738,11.26 l 11.2,11.2 c 3.125,3.125 7.219,4.688 11.31,4.688 4.091,0 8.188,-1.562 11.31,-4.688 L 253,229 c 11.4,27.8 19,54.5 19,75 0,29.88 -15.75,45.5 -30.5,50.25 L 208,364.9 v 101.04306 h 48 V 400 c 33.88,-10.75 64,-44.38 64,-96 C 320,230.62 252.25,106.8 199.4,62.5 213.4,59.12 224,47 224,32 224,14.38 209.62,0 192,0 H 128 C 110.4,0 96,14.38 96,32 96,47 106.62,59.12 120.62,62.5 67.75,106.8 0,230.6 0,304 Z"
     id="path4255"
     sodipodi:nodetypes="sssssssscccccsscsscssccscccccscsssscs"
     style="stroke:#ffffff;stroke-opacity:1;stroke-width:5;stroke-dasharray:none" />
  <path
     style="fill:#ffffff;stroke-width:2.91904"
     d="m 111.94855,414.13915 -0.14923,-49.69665 -17.806162,-5.66281 c -9.793386,-3.11454 -19.123594,-6.33875 -20.733795,-7.1649 -12.913976,-6.62582 -21.764421,-20.203 -24.249842,-37.2009 -0.9804,-6.705 -0.390615,-22.78072 1.179243,-32.14251 6.082656,-36.2737 25.254246,-80.03499 54.156386,-123.61798 22.62332,-34.11485 47.51442,-60.890734 56.5758,-60.859783 2.31911,0.0079 7.21964,2.397683 11.18031,5.452123 13.61296,10.49819 35.42588,40.20574 56.89198,77.48257 l 1.53566,2.66674 -33.88267,33.82129 c -37.36114,37.29346 -36.67131,36.47604 -36.67131,43.45413 0,5.8979 1.48444,8.38574 10.21048,17.11214 4.11344,4.1136 8.5458,8.02354 9.84969,8.68873 3.36111,1.71471 8.7696,2.03767 12.68761,0.75762 2.94508,-0.96219 4.93046,-2.80416 31.2277,-28.97203 15.44547,-15.36947 28.35277,-27.9445 28.6829,-27.9445 1.39107,0 11.09261,28.00176 14.42581,41.63756 3.64249,14.90106 4.07002,18.2217 4.07238,31.6304 0.002,11.39694 -0.10496,12.65301 -1.5194,17.84327 -3.73834,13.71778 -11.97301,24.6554 -22.56959,29.97781 -2.13746,1.0736 -9.40328,3.70734 -16.14626,5.85276 -6.74299,2.14542 -14.69008,4.69493 -17.66021,5.66559 l -5.40023,1.76484 v 49.57557 49.57557 h -47.86901 -47.86901 z"
     id="path4480" />
</svg>
