<?xml version="1.0" encoding="UTF-8" standalone="no"?>
<svg
   viewBox="0 0 256 256"
   version="1.1"
   id="svg8"
   sodipodi:docname="9023637_number_square_zero_fill_icon.svg"
   inkscape:export-filename="zeroForWhiteBG.svg"
   inkscape:export-xdpi="96"
   inkscape:export-ydpi="96"
   inkscape:version="1.2.2 (1:1.2.2+202212051552+b0a8486541)"
   xmlns:inkscape="http://www.inkscape.org/namespaces/inkscape"
   xmlns:sodipodi="http://sodipodi.sourceforge.net/DTD/sodipodi-0.dtd"
   xmlns="http://www.w3.org/2000/svg"
   xmlns:svg="http://www.w3.org/2000/svg">
  <defs
     id="defs12" />
  <sodipodi:namedview
     id="namedview10"
     pagecolor="#ffffff"
     bordercolor="#000000"
     borderopacity="0.25"
     inkscape:showpageshadow="2"
     inkscape:pageopacity="0.0"
     inkscape:pagecheckerboard="false"
     inkscape:deskcolor="#d1d1d1"
     showgrid="false"
     inkscape:zoom="3.4257812"
     inkscape:cx="110.33979"
     inkscape:cy="128.2919"
     inkscape:window-width="1920"
     inkscape:window-height="1048"
     inkscape:window-x="0"
     inkscape:window-y="0"
     inkscape:window-maximized="1"
     inkscape:current-layer="svg8" />
  <rect
     fill="none"
     height="256"
     width="256"
     id="rect2" />
  <ellipse
     cx="128"
     cy="128"
     rx="24"
     ry="40"
     id="ellipse4"
     style="fill:#ffffff;fill-opacity:1" />
  <path
     d="M208,32H48A16,16,0,0,0,32,48V208a16,16,0,0,0,16,16H208a16,16,0,0,0,16-16V48A16,16,0,0,0,208,32ZM128,184c-27.6,0-40-28.1-40-56s12.4-56,40-56,40,28.1,40,56S155.6,184,128,184Z"
     id="path6"
     style="fill-opacity:1;fill:#ffffff;stroke:#100002;stroke-opacity:1;stroke-width:5;stroke-dasharray:none" />
  <path
     style="fill:#000000;fill-opacity:1;stroke:#100002;stroke-width:0.918331"
     d="m 121.62431,183.28774 c -5.08852,-0.91938 -10.4601,-3.29005 -14.50517,-6.40165 -2.49808,-1.92161 -6.4566,-6.24569 -8.461131,-9.2425 -5.005082,-7.48268 -8.559276,-17.96868 -9.974164,-29.42694 -0.493431,-3.99598 -0.493431,-16.43732 0,-20.4333 1.820228,-14.74085 6.834531,-26.933843 14.304555,-34.783557 2.97483,-3.126044 4.84493,-4.611826 8.29163,-6.58768 4.78385,-2.742378 10.49698,-4.165819 16.71997,-4.165819 7.72595,0 14.54138,2.163981 20.33251,6.455818 2.74095,2.031327 6.85952,6.44008 8.9858,9.618891 14.0343,20.981507 14.02443,58.301387 -0.021,79.402857 -2.22389,3.34111 -7.45196,8.67694 -10.32352,10.53633 -4.07297,2.6373 -8.09113,4.2187 -12.81033,5.04166 -3.19991,0.55802 -9.41125,0.55103 -12.53914,-0.0141 z m 10.94243,-15.87007 c 9.7045,-2.99851 17.40672,-16.04455 19.2218,-32.55792 0.37935,-3.45124 0.37186,-10.25061 -0.0152,-13.80398 -1.05217,-9.65916 -4.23571,-18.49193 -8.8801,-24.637876 -4.30853,-5.701496 -9.10353,-8.408772 -14.89324,-8.408772 -5.77814,0 -10.60107,2.729735 -14.92019,8.444689 -10.58073,14.000159 -12.27177,39.980539 -3.71283,57.042229 3.01284,6.0059 7.22546,10.74175 11.48137,12.90739 3.29788,1.67815 8.19729,2.1022 11.71839,1.01424 z"
     id="path1359" />
</svg>
